<?xml version="1.0" standalone="no"?>
<!DOCTYPE svg PUBLIC "-//W3C//DTD SVG 20010904//EN"
 "http://www.w3.org/TR/2001/REC-SVG-20010904/DTD/svg10.dtd">
<svg version="1.0" xmlns="http://www.w3.org/2000/svg"
 width="882.000000pt" height="882.000000pt" viewBox="0 0 882.000000 882.000000"
 preserveAspectRatio="xMidYMid meet">

<g transform="translate(0.000000,882.000000) scale(0.100000,-0.100000)"
fill="#000000" stroke="none">
<path d="M4145 8699 c-219 -14 -408 -30 -455 -40 -25 -5 -90 -16 -144 -25
-279 -44 -756 -185 -991 -294 -203 -93 -439 -213 -520 -263 -102 -63 -295
-191 -355 -236 -68 -50 -228 -177 -240 -190 -3 -3 -34 -30 -70 -60 -107 -89
-307 -298 -443 -462 -70 -85 -131 -158 -135 -164 -145 -197 -256 -379 -396
-649 -59 -114 -68 -151 -38 -160 9 -2 85 -5 169 -5 147 -1 152 0 181 24 17 14
33 37 37 52 6 24 21 53 73 138 6 11 23 40 37 65 61 109 197 305 294 425 307
377 632 661 1056 922 172 106 493 265 595 295 19 5 40 14 45 18 14 12 265 97
339 116 34 8 90 24 126 34 109 32 349 79 460 91 58 6 125 15 150 20 72 15 608
23 750 10 136 -12 391 -46 455 -60 22 -5 78 -17 125 -26 196 -39 717 -208 754
-245 5 -5 16 -10 24 -10 20 0 315 -148 430 -216 116 -69 325 -209 402 -270 30
-24 93 -74 140 -110 224 -177 617 -614 755 -840 147 -241 165 -272 211 -366
13 -26 32 -51 41 -56 10 -5 92 -9 182 -8 141 1 165 3 174 18 13 20 -68 186
-202 416 -116 197 -281 430 -418 590 -267 311 -661 648 -1008 859 -199 122
-478 262 -700 351 -230 93 -718 230 -880 247 -33 4 -76 11 -95 16 -58 14 -303
38 -505 49 -208 11 -219 11 -410 -1z"/>
<path d="M3900 8025 c-107 -13 -224 -30 -260 -39 -36 -9 -101 -22 -145 -30
-141 -26 -377 -101 -630 -202 -80 -32 -416 -200 -460 -230 -86 -59 -128 -86
-193 -121 -22 -12 -50 -35 -62 -50 -18 -23 -19 -29 -7 -38 9 -7 201 -7 608 -1
882 13 1032 0 1296 -109 172 -71 362 -252 436 -416 56 -123 84 -329 62 -454
-30 -173 -126 -352 -243 -455 -97 -86 -246 -171 -374 -214 -147 -49 -399 -81
-731 -92 -155 -5 -210 -10 -218 -21 -9 -9 -10 -134 -7 -451 5 -424 6 -439 28
-494 26 -65 104 -148 142 -149 13 0 241 0 508 0 305 1 491 -2 500 -9 24 -15
-1 -44 -46 -54 -142 -31 -218 -84 -229 -160 -7 -46 11 -143 42 -221 8 -22 21
-60 28 -85 14 -49 59 -175 101 -285 14 -38 39 -104 54 -145 15 -41 51 -138 80
-215 29 -77 63 -167 75 -200 12 -33 35 -91 49 -130 15 -38 38 -99 51 -135 12
-36 30 -78 39 -95 9 -16 16 -37 16 -45 0 -8 10 -35 21 -60 12 -25 25 -58 29
-75 5 -16 31 -84 58 -151 28 -67 56 -140 63 -162 6 -23 20 -49 29 -57 15 -14
19 -14 29 -1 7 8 19 37 26 63 8 26 26 80 40 118 39 107 85 234 105 295 11 30
35 100 55 155 20 55 44 125 55 155 10 30 57 168 105 305 114 331 123 362 106
423 -7 26 -23 72 -36 102 -13 30 -40 97 -60 149 -93 241 -158 344 -249 395
-39 22 -114 45 -201 63 -41 9 -60 38 -34 54 14 8 1211 11 1242 3 9 -3 17 -13
17 -23 0 -21 -28 -34 -115 -50 -130 -24 -195 -58 -236 -124 -28 -45 -22 -77
48 -277 8 -25 24 -72 34 -105 19 -63 97 -290 150 -435 17 -47 41 -114 54 -150
12 -36 39 -110 59 -165 21 -55 43 -118 50 -140 24 -75 117 -330 131 -360 7
-16 19 -50 25 -75 7 -25 16 -49 20 -55 4 -5 18 -42 29 -82 12 -40 26 -75 30
-78 5 -3 14 -28 20 -57 13 -59 26 -78 52 -78 14 0 22 14 35 58 15 54 29 95 74
215 11 28 28 79 39 112 10 33 46 139 79 235 115 335 323 980 341 1055 5 22 16
66 25 98 8 32 16 103 17 158 2 113 -4 128 -80 186 -37 29 -75 43 -224 84 -31
8 -38 14 -35 32 l3 22 436 2 c376 2 439 1 449 -12 17 -20 -1 -41 -42 -50 -96
-22 -181 -78 -252 -166 -69 -86 -174 -306 -206 -427 -9 -37 -17 -60 -130 -382
-34 -96 -66 -191 -71 -210 -6 -19 -16 -48 -24 -65 -7 -16 -29 -79 -48 -140
-20 -60 -43 -128 -53 -150 -9 -22 -22 -60 -29 -85 -11 -40 -143 -422 -211
-615 -14 -38 -32 -95 -41 -125 -8 -30 -19 -59 -23 -65 -4 -5 -15 -32 -23 -60
-16 -51 -108 -274 -129 -310 -39 -67 -41 -76 -24 -93 15 -15 18 -15 44 1 15
10 54 31 87 48 154 80 383 228 557 361 164 125 460 414 552 538 22 30 59 78
82 105 39 48 112 154 206 300 54 85 134 236 183 348 20 45 45 100 55 122 32
70 68 167 94 260 15 50 35 119 46 155 11 36 22 81 25 100 3 19 17 85 30 145
34 158 59 483 51 670 -10 228 -26 414 -42 477 -8 31 -21 95 -29 142 -15 86
-56 243 -80 306 -7 19 -27 76 -44 125 -37 105 -61 163 -107 261 -19 39 -34 73
-34 76 0 10 -140 260 -170 303 -15 22 -44 65 -64 95 -78 118 -138 198 -242
320 -86 102 -335 350 -419 416 -33 27 -62 51 -65 54 -3 3 -48 37 -100 76 -193
144 -438 292 -622 374 -51 23 -97 45 -103 50 -5 4 -28 13 -50 20 -22 7 -53 20
-70 30 -16 10 -46 21 -65 25 -19 4 -48 14 -64 22 -16 8 -57 23 -90 33 -34 10
-101 31 -151 45 -195 58 -460 107 -740 135 -171 18 -561 10 -775 -15z"/>
<path d="M1955 7207 c-140 -112 -399 -373 -516 -519 -58 -73 -143 -189 -189
-258 -45 -69 -91 -136 -100 -150 -20 -30 -122 -230 -179 -351 -44 -94 -81
-189 -111 -284 -10 -33 -26 -80 -34 -105 -24 -73 -58 -201 -68 -255 -5 -27
-15 -81 -23 -120 -72 -337 -66 -860 14 -1241 16 -78 34 -150 39 -161 6 -10 15
-47 22 -81 6 -35 20 -83 31 -108 10 -25 19 -52 19 -60 0 -7 11 -38 25 -68 14
-30 25 -59 25 -64 0 -9 16 -46 75 -177 27 -60 98 -200 106 -211 5 -7 20 -31
33 -55 36 -70 49 -92 73 -126 13 -17 23 -34 23 -38 0 -7 6 -16 133 -185 215
-288 445 -519 723 -727 372 -277 781 -477 1249 -611 106 -31 281 -70 365 -82
41 -6 116 -18 165 -25 181 -29 439 -37 740 -23 99 5 205 13 235 19 30 5 102
16 160 24 240 34 524 114 812 228 129 50 154 70 129 101 -10 12 -34 71 -86
216 -13 36 -37 101 -53 145 -16 44 -50 139 -76 210 -25 72 -57 162 -71 200
-15 39 -37 102 -50 140 -23 69 -76 220 -189 540 -32 88 -63 180 -70 205 -7 25
-18 55 -24 67 -6 11 -28 69 -48 129 -20 60 -40 113 -45 119 -18 19 -40 -23
-98 -190 -67 -194 -84 -244 -117 -335 -13 -36 -67 -189 -120 -340 -53 -151
-117 -331 -141 -400 -25 -69 -56 -156 -69 -195 -13 -38 -31 -84 -39 -102 -8
-17 -15 -34 -15 -39 0 -4 -11 -30 -24 -58 -13 -28 -40 -89 -61 -136 -64 -145
-88 -192 -102 -197 -25 -10 -56 23 -80 87 -14 36 -35 92 -48 125 -13 33 -31
83 -41 110 -9 28 -27 75 -39 105 -13 30 -35 89 -51 130 -15 41 -36 95 -46 120
-11 25 -28 70 -38 100 -10 30 -30 87 -45 125 -15 39 -38 99 -52 135 -13 36
-34 90 -45 120 -11 30 -26 69 -34 85 -7 17 -20 50 -28 75 -20 62 -64 178 -81
217 -8 17 -15 35 -15 41 0 5 -13 41 -28 78 -26 63 -55 138 -103 269 -10 28
-44 115 -74 195 -31 80 -67 177 -82 215 -14 39 -37 94 -50 124 -12 29 -23 58
-23 64 0 28 -102 228 -142 278 -59 73 -42 72 -637 66 -501 -5 -532 -4 -541 13
-15 27 15 46 102 64 154 31 229 92 262 213 15 57 20 126 27 428 11 492 10
1747 -1 1873 -10 110 -33 178 -77 224 -39 41 -128 75 -215 83 -53 4 -85 13
-102 26 -13 10 -32 19 -43 19 -10 0 -58 -33 -108 -73z"/>
<path d="M3139 7240 c-60 -3 -102 -10 -112 -19 -16 -13 -32 -57 -44 -124 -8
-44 -16 -1393 -9 -1423 6 -24 8 -24 134 -24 152 1 296 14 375 35 285 75 492
264 576 527 52 163 53 357 2 501 -48 134 -64 162 -166 286 -27 32 -165 141
-179 141 -6 0 -28 11 -48 25 -79 54 -309 86 -529 75z"/>
<path d="M250 3225 c-14 -17 -6 -61 15 -85 7 -8 16 -26 20 -40 13 -43 57 -140
141 -305 72 -142 106 -203 179 -321 246 -398 651 -834 1048 -1128 332 -247
769 -482 1132 -609 39 -14 102 -37 140 -51 39 -14 78 -26 86 -26 9 0 42 -9 73
-20 67 -23 257 -69 406 -99 444 -89 1023 -105 1470 -41 478 68 845 175 1290
373 74 33 142 65 150 72 8 6 31 18 50 25 19 8 51 24 70 37 19 13 38 23 41 23
4 0 36 18 70 40 35 21 89 53 119 71 121 70 384 263 525 384 250 215 530 518
688 745 52 75 150 225 192 295 82 135 265 505 265 535 0 6 12 32 26 56 25 43
26 46 9 64 -16 18 -32 20 -167 20 -94 0 -157 -4 -171 -12 -26 -13 -46 -38 -47
-55 0 -14 -117 -255 -162 -333 -17 -30 -38 -68 -47 -85 -67 -122 -224 -345
-355 -505 -163 -198 -554 -561 -736 -682 -14 -9 -63 -43 -110 -75 -47 -33 -92
-62 -100 -66 -8 -4 -51 -30 -95 -57 -92 -57 -498 -260 -521 -260 -3 0 -20 -6
-37 -14 -124 -57 -432 -153 -642 -201 -305 -69 -575 -98 -915 -97 -479 0 -814
53 -1290 203 -52 16 -111 36 -130 44 -19 7 -78 30 -130 51 -399 156 -846 428
-1160 705 -325 287 -564 575 -804 969 -51 84 -164 307 -190 375 -36 93 -41 95
-224 95 -129 0 -162 -3 -172 -15z"/>
</g>
</svg>
