<svg width="450" height="450" viewBox="0 0 450 450" fill="none" xmlns="http://www.w3.org/2000/svg">
<path fill-rule="evenodd" clip-rule="evenodd" d="M178.916 16.756C259.208 3.19424 335.113 34.5414 375.373 88.9281L375.336 104.349C331.614 45.8377 257.484 13.286 180.526 26.2841C70.9273 44.7959 -2.86631 148.625 15.6404 258.191C34.146 367.754 137.948 441.589 247.546 423.077C344.217 406.749 413.043 323.997 415.19 229.519L423.915 245.215C414.951 337.662 345.159 416.384 249.155 432.6C134.321 451.996 25.5141 374.634 6.11829 259.799C-13.2785 144.962 64.0826 36.1508 178.917 16.755L178.916 16.756Z" fill="#3E4095"/>
<path d="M185.427 182.98V144.814C185.427 142.84 185.248 141.315 184.891 140.148C184.53 139.011 183.813 138.083 182.766 137.366C181.689 136.649 180.164 136.142 178.13 135.782C176.095 135.421 173.283 135.065 169.754 134.705V132.043H255.778C275.789 132.043 290.982 136.259 301.332 144.665C311.68 153.071 316.856 163.928 316.856 177.208C316.856 182.504 315.898 187.648 313.953 192.611C312.009 197.548 308.631 202.034 303.844 206.013C299.088 209.989 292.686 213.371 284.731 216.093C276.775 218.846 266.842 220.67 255.001 221.537V222.075C269.864 222.972 281.888 224.917 291.101 227.909C300.314 230.926 307.402 234.636 312.365 239.062C317.302 243.492 320.621 248.276 322.326 253.422C324.004 258.535 324.842 263.678 324.842 268.825C324.842 283.509 319.665 295.384 309.288 304.39C298.938 313.422 283.774 317.939 263.763 317.939H237.83V315.278H248.63C253.924 315.278 258.35 313.99 261.91 311.448C265.438 308.876 268.28 305.374 270.405 300.949C272.526 296.521 273.993 291.438 274.771 285.694C275.578 279.921 275.966 273.849 275.966 267.479C275.966 253.69 273.575 242.922 268.787 235.236C264.034 227.519 256.586 223.659 246.506 223.659H238.997C238.43 222.762 237.859 221.895 237.263 221.028H245.966C254.461 221.028 260.623 217.468 264.421 210.411C268.22 203.322 270.135 193.152 270.135 179.839C270.135 164.796 268.37 153.519 264.81 146.012C261.281 138.475 255.357 134.705 247.013 134.705H231.879V214.178C226.224 207.687 219.704 202.033 212.466 197.278C204.33 191.984 195.777 187.437 186.862 183.608L185.427 182.981V182.98Z" fill="#3E4095"/>
<path d="M146.155 137.906C142.895 139.1 140.054 140.775 137.631 142.87C135.236 144.934 133.382 147.567 132.069 150.678C130.782 153.787 130.304 157.496 130.661 161.772C131.261 169.131 133.923 175.174 138.706 179.959C143.492 184.745 149.296 189.021 156.144 192.761C162.995 196.499 170.384 200.088 178.34 203.498C186.264 206.91 193.713 210.856 200.621 215.373C207.532 219.888 213.423 225.363 218.329 231.763C223.263 238.165 226.105 246.24 226.881 255.993C227.691 265.923 226.555 274.625 223.443 282.104C220.364 289.582 215.964 295.893 210.253 301.006C204.569 306.123 197.839 310.099 190.063 312.97C182.284 315.842 174.119 317.637 165.567 318.324C167.631 316.71 170.59 315.453 176.243 313.18C179.742 311.774 182.825 309.741 185.427 307.02C188.059 304.298 190.092 300.916 191.588 296.85C193.056 292.75 193.562 287.967 193.145 282.493C192.515 274.805 189.794 268.434 185.011 263.411C180.193 258.355 174.389 253.958 167.542 250.219C160.69 246.48 153.303 242.98 145.377 239.751C137.451 236.519 130.034 232.749 123.155 228.503C116.244 224.228 110.383 219.111 105.507 213.13C100.63 207.177 97.7888 199.461 97.0414 190.068C96.3552 181.662 97.4322 174.097 100.244 167.336C103.055 160.548 107.122 154.745 112.505 149.929C117.889 145.114 124.35 141.255 131.858 138.414C139.366 135.572 147.502 133.778 156.234 133.091C155.516 134.525 151.687 135.872 146.155 137.907V137.906Z" fill="#E54D38"/>
<path d="M137.451 308.064C134.76 299.12 150.163 294.544 147.919 276.539C146.155 262.362 133.177 252.282 118.997 254.047C104.82 255.811 94.7406 268.794 96.5048 282.939C99.1962 304.356 124.92 318.234 155.01 317.396C147.621 315.124 139.547 314.974 137.451 308.064Z" fill="#E54D38"/>
<path d="M185.427 182.98V166.889C202.745 171.225 218.57 179.03 231.878 192.402V214.177C226.224 207.686 219.704 202.032 212.465 197.277C204.33 191.983 195.777 187.436 186.862 183.607L185.427 182.98Z" fill="#3B3C7A"/>
<path d="M165.568 318.324C167.632 316.71 170.591 315.453 176.244 313.18C179.743 311.774 182.825 309.741 185.427 307.02C188.06 304.298 190.093 300.916 191.589 296.85C193.057 292.75 193.563 287.967 193.146 282.493C192.516 274.805 189.795 268.434 185.012 263.411C180.194 258.355 174.39 253.958 167.543 250.219C160.691 246.48 153.304 242.98 145.378 239.751C137.452 236.519 130.035 232.749 123.156 228.503C116.245 224.228 110.384 219.111 105.507 213.13C100.631 207.177 97.7897 199.461 97.0423 190.068C96.3561 181.662 97.4331 174.097 100.245 167.336C100.872 165.841 101.529 164.374 102.307 162.97C97.4331 196.979 130.124 214.535 163.594 228.864C226.883 255.993 217.163 308.905 165.57 318.324H165.568Z" fill="#CE4539"/>
<path fill-rule="evenodd" clip-rule="evenodd" d="M38.5953 240.496C41.1904 247.871 45.5767 253.078 52.8674 254.769C45.4943 257.381 40.2862 261.768 38.5953 269.041C35.9833 261.666 31.5949 256.459 24.3223 254.769C31.6803 252.174 36.8874 247.768 38.5953 240.496Z" fill="#E54D38"/>
<path fill-rule="evenodd" clip-rule="evenodd" d="M37.6492 181.473C40.2442 188.848 44.6305 194.055 51.9213 195.746C44.5481 198.358 39.341 202.745 37.6492 210.018C35.0371 202.643 30.6488 197.436 23.3761 195.746C30.7342 193.151 35.9413 188.745 37.6492 181.473Z" fill="#E54D38"/>
<path d="M364.524 103.56L377.317 120.849L372.743 124.234L359.95 106.945L364.524 103.56Z" fill="#606062"/>
<path d="M366.938 111.494L370.445 116.234L345.651 134.58L342.144 129.842L366.938 111.494Z" fill="#606062"/>
<path d="M333.165 101.897L342.812 112.595L338.622 116.374L328.975 105.677L333.165 101.897Z" fill="#606062"/>
<path d="M353.21 90.6662L355.906 93.655L338.247 124.279L334.098 119.678L346.779 99.1746L325.085 109.684L320.931 105.077L353.21 90.6662Z" fill="#606062"/>
<path d="M318.069 84.4604L323.471 87.2052L319.935 104.509L314.462 100.388L318.069 84.4604Z" fill="#606062"/>
<path d="M322.297 64.1665L326.988 67.6998L306.745 94.5763L302.054 91.0429L322.297 64.1665Z" fill="#606062"/>
<path d="M315.804 76.9336L323.376 82.636C323.868 83.0067 324.384 83.2267 324.928 83.291C325.467 83.3503 325.998 83.2478 326.513 82.9726C327.021 82.7033 327.494 82.2994 327.925 81.7539L328.789 80.6056C329.226 80.0259 329.5 79.4523 329.615 78.8665C329.731 78.2919 329.694 77.7504 329.493 77.243C329.298 76.7407 328.943 76.2946 328.438 75.9149L320.866 70.2125L324.289 65.6664L331.956 71.4402C333.432 72.5513 334.487 73.8111 335.126 75.2207C335.764 76.6302 335.971 78.1 335.742 79.6371C335.507 81.1702 334.84 82.6722 333.724 84.154L332.808 85.3707C331.687 86.8585 330.413 87.9345 328.996 88.5956C327.572 89.2526 326.098 89.4656 324.555 89.2436C323.013 89.0206 321.51 88.3535 320.048 87.2514L312.381 81.4776L315.804 76.9326V76.9336Z" fill="#606062"/>
<path d="M286.932 69.4781L299.558 76.4122L296.841 81.3591L284.216 74.424L286.932 69.4781Z" fill="#606062"/>
<path d="M302.176 52.2855L305.704 54.2235L299.083 88.9482L293.652 85.9654L298.898 62.4345L281.858 79.4864L276.421 76.4996L302.176 52.2855Z" fill="#606062"/>
<path d="M261.799 51.3009L277.261 56.2478L275.542 61.6227L260.079 56.6758L261.799 51.3009Z" fill="#606062"/>
<path d="M263.388 36.9274L269.027 38.7308L258.783 70.755L253.144 68.9517L263.388 36.9274Z" fill="#606062"/>
<path d="M277.988 41.597L283.626 43.4004L273.382 75.4246L267.744 73.6213L277.988 41.597Z" fill="#606062"/>
<path d="M232.626 31.0181L238.467 31.9765L233.026 65.1561L227.185 64.1977L232.626 31.0181Z" fill="#606062"/>
<path d="M231.018 59.1081L239.321 60.4704C240.535 60.6693 241.525 60.5357 242.284 60.0524C243.042 59.5772 243.505 58.8047 243.68 57.7377L243.967 55.9856C244.093 55.2221 244.059 54.553 243.86 53.9603C243.652 53.3745 243.291 52.8913 242.77 52.5095C242.248 52.1278 241.579 51.8665 240.778 51.7349L232.452 50.3696L233.357 44.8471L241.636 46.2053C242.735 46.3852 243.631 46.2365 244.328 45.7432C245.023 45.257 245.456 44.4723 245.632 43.3973L245.86 42.0029C246.018 41.0455 245.836 40.2478 245.316 39.6179C244.796 38.9809 243.99 38.577 242.892 38.3972L234.636 37.0429L235.546 31.4973L244.168 32.9108C246.053 33.2202 247.613 33.8039 248.848 34.6619C250.084 35.5199 250.944 36.6129 251.436 37.9491C251.929 39.2773 252.04 40.7993 251.757 42.5203L251.528 43.9148C251.336 45.0832 250.94 46.0898 250.34 46.9197C249.74 47.7495 248.963 48.3895 248.001 48.8396C247.031 49.2886 245.93 49.5157 244.675 49.5177C245.953 49.9115 247.008 50.5002 247.833 51.2758C248.658 52.0504 249.234 52.9767 249.553 54.0537C249.881 55.1307 249.933 56.3232 249.718 57.6313L249.423 59.4306C249.14 61.1515 248.548 62.5661 247.647 63.6742C246.754 64.7834 245.58 65.5509 244.134 65.9779C242.688 66.4049 241.031 66.4692 239.161 66.1617L230.103 64.6769L231.016 59.1081H231.018Z" fill="#606062"/>
<path d="M186.73 31.8207L192.627 31.3013L195.576 64.7954L189.68 65.3138L186.73 31.8207Z" fill="#606062"/>
<path d="M190.796 46.4143L199.641 45.6347C200.317 45.5754 200.893 45.3664 201.362 45.0158C201.838 44.6652 202.185 44.199 202.41 43.6002C202.635 43.0105 202.719 42.3374 202.652 41.5819L202.513 39.9936C202.445 39.231 202.252 38.5669 201.933 38.0013C201.606 37.4437 201.19 37.0369 200.66 36.7746C200.138 36.5034 199.527 36.4069 198.835 36.4672L189.99 37.2458L189.49 31.5776L198.288 30.802C200.206 30.6332 201.914 30.8633 203.395 31.4771C204.884 32.099 206.07 33.0715 206.963 34.3956C207.855 35.7107 208.376 37.3051 208.539 39.1607L208.731 41.3468C208.895 43.2104 208.66 44.8551 208.011 46.2998C207.362 47.7434 206.361 48.8927 204.995 49.7588C203.63 50.6238 201.995 51.1401 200.092 51.3079L191.295 52.0825L190.795 46.4143H190.796Z" fill="#606062"/>
<path d="M168.048 64.1695L184.241 60.2122L185.591 65.7408L169.398 69.6971L168.048 64.1695Z" fill="#606062"/>
<path d="M158.881 37.6548L164.631 36.2503L172.611 68.9125L166.86 70.317L158.881 37.6548Z" fill="#606062"/>
<path d="M140.474 68.2614L153.794 62.7771L155.942 67.9952L142.623 73.4796L140.474 68.2614Z" fill="#606062"/>
<path d="M136.643 45.6056L140.366 44.0735L163.26 71.0092L157.531 73.3671L142.492 54.5249L145.086 78.4908L139.351 80.8528L136.643 45.6056Z" fill="#606062"/>
<path d="M117.051 73.8051L119.289 68.4463L139.041 81.1471L133.19 84.6493L117.051 73.8051Z" fill="#606062"/>
<path d="M101.661 64.3343L106.74 61.2952L124.007 90.1458L118.927 93.1859L101.661 64.3343Z" fill="#606062"/>
<path d="M115.115 78.9469L114.555 56.6176L120.685 52.9496L119.969 86.3352L115.115 78.9469Z" fill="#606062"/>
<path d="M74.8575 86.8686L79.4589 82.7184L104.189 93.6078L104.209 94.525L87.2369 75.7049L91.3921 71.9565L113.894 96.9081L109.258 101.089L85.0698 90.7094L85.0226 89.7851L101.515 108.073L97.3587 111.82L74.8575 86.8686Z" fill="#606062"/>
<path d="M73.4458 122.704L82.6514 111.623L86.9915 115.23L77.7869 126.309L73.4458 122.704Z" fill="#606062"/>
<path d="M59.4594 104.475L62.0313 101.378L94.8693 114.467L90.91 119.234L68.8016 109.619L82.3101 129.584L78.3458 134.356L59.4594 104.475Z" fill="#606062"/>
<path d="M72.1578 146.605C71.2797 148.204 70.2721 149.514 69.1268 150.532C67.9845 151.562 66.7246 152.283 65.3513 152.699C63.9789 153.116 62.5272 153.202 60.9901 152.951L60.7259 146.71C62.2168 146.88 63.5319 146.684 64.6701 146.12C65.8014 145.552 66.6895 144.689 67.3355 143.514C68.0648 142.186 68.3512 141.009 68.1924 139.987C68.0377 138.956 67.454 138.167 66.4373 137.609L65.4065 137.043C64.6872 136.648 63.996 136.53 63.336 136.68C62.6729 136.838 62.0349 137.163 61.4251 137.666C60.8163 138.168 60.0799 138.853 59.2219 139.742C59.1918 139.78 59.1596 139.807 59.1335 139.838C59.1074 139.869 59.0853 139.892 59.0561 139.912L58.8723 140.099C57.4728 141.582 56.2381 142.731 55.1501 143.53C54.0701 144.333 52.765 144.823 51.251 144.99C49.736 145.157 48.0361 144.728 46.1544 143.694L45.5526 143.363C43.8096 142.406 42.5166 141.218 41.6917 139.802C40.8569 138.388 40.5053 136.799 40.6298 135.031C40.7584 133.255 41.3683 131.375 42.4663 129.376C43.2068 128.027 44.1019 126.907 45.1287 126.021C46.1625 125.139 47.3128 124.52 48.5877 124.166C49.8626 123.813 51.2369 123.721 52.7098 123.891L53.2231 129.874C51.7995 129.776 50.5709 129.948 49.5431 130.392C48.5264 130.833 47.7548 131.517 47.2414 132.451C46.5533 133.702 46.281 134.823 46.4196 135.799C46.5623 136.769 47.0988 137.514 48.0331 138.027L48.8007 138.449C49.5823 138.878 50.3368 139.014 51.0531 138.84C51.7664 138.673 52.4355 138.339 53.0564 137.834C53.6762 137.327 54.4568 136.595 55.3912 135.631C55.4434 135.57 55.4946 135.509 55.5579 135.444C55.6162 135.386 55.6755 135.328 55.7297 135.295C55.795 135.241 55.8543 135.183 55.8985 135.135C55.9467 135.08 55.999 135.019 56.0583 134.943C57.3563 133.63 58.5468 132.609 59.6318 131.864C60.7198 131.13 61.9726 130.701 63.4113 130.59C64.8389 130.483 66.4403 130.913 68.2115 131.885L69.2071 132.432C70.9371 133.382 72.208 134.576 73.0318 136.009C73.8486 137.44 74.1922 139.06 74.0415 140.86C73.8978 142.662 73.2689 144.578 72.1558 146.604L72.1578 146.605Z" fill="#606062"/>
<path d="M360.714 249.228C349.101 322.469 285.608 377.213 210.573 377.213C126.609 377.213 58.5428 309.147 58.5428 225.182C58.5428 141.218 126.609 73.1521 210.573 73.1521C274.692 73.1521 329.538 112.845 351.884 168.998" stroke="#E54D38" stroke-width="3.552" stroke-miterlimit="2.61313"/>
<path fill-rule="evenodd" clip-rule="evenodd" d="M389.656 181.658C387.402 183.83 384.35 184.992 381.788 185.899C379.74 186.624 379.153 186.714 377.017 186.917L372.463 187.629C376.325 189.498 376.318 189.142 379.893 189.103C377.84 190.435 377.539 190.909 375.15 190.889C381.985 191.117 391.256 188.056 397.507 179.892C401.105 175.197 402.024 170.804 400.579 166.815C399.886 164.9 398.538 163.263 397.605 161.164C396.131 157.848 397.18 158.02 395.951 155.367C392.321 155.429 390.706 156.943 386.161 154.621L391.737 152.743L385.711 150.193C389.382 150.739 390.635 151.48 393.713 150.319C392.868 145.823 390.933 146.156 393.15 140.273C393.259 140.502 393.361 140.811 393.423 140.98C393.485 141.146 393.613 141.474 393.686 141.674C397.76 152.901 416.413 159.231 422.109 145.934L419.157 147.976C411.267 154.195 410.959 150.013 404.325 144.159L409.8 136.888C403.136 132.671 400.745 128.559 394.593 132.46C389.667 135.584 388.744 141.017 388.405 145.667C386.549 141.621 388.465 140.316 387.18 136.432C374.856 145.742 372.509 140.375 371.618 156.407L380.142 158.051C377.011 159.714 376.586 158.449 372.681 160.917L386.784 162.894C381.874 163.948 376.646 164.973 371.852 164.866C370.513 168.548 369.846 173.474 369.653 177.126L378.847 181.156C375.322 182.502 375.279 181.824 371.888 181.914C375.55 183.528 378.63 183.715 381.917 183.477C383.626 183.353 388.358 182.359 389.655 181.654L389.656 181.658ZM411.532 137.915L406.874 144.071L412.566 149.217C415.439 148.578 418.383 147.55 421.234 144.554L411.533 137.914L411.532 137.915ZM418.1 139.459C424.084 134.222 427.545 132.912 420.085 125.717C413.456 119.324 410.326 123.937 406.858 131.15L418.1 139.458V139.459ZM427.23 134.809C431.308 136.218 433.537 137.617 435.367 141.359C437.55 145.824 435.918 148.6 437.231 150.936C438.139 152.552 447.374 160.672 441.348 170.132C444.784 172.302 447.883 179.886 444.851 186.014C435.222 205.479 451.101 194.197 406.887 215.954C393.597 222.494 384.52 270.789 297.513 222.12C370.018 259.35 385.992 222.804 388.512 218.848L387.02 214.863C387.244 214.94 387.523 215.006 387.734 215.068L381.287 206.257L394.348 216.938C397.598 214.361 410.131 209.794 415.153 207.424C424.177 203.165 428.434 199.351 430.29 198.435C433.219 196.987 432.843 198.253 435.687 196.736C438.004 192.845 442.815 186.354 443.039 182.561C443.279 178.473 440.816 173.418 437.458 170.476C444.501 157.736 434.749 155.919 433.416 151.817C433.409 144.282 434.556 142.003 425.562 136.859L420.668 140.052C421.096 141.598 420.264 140.093 421.886 142.335C422.742 143.519 423.501 144.122 424.244 144.987C422.432 150.243 420.487 153.498 415.002 155.093C409.603 156.665 407.89 155.698 401.915 154.71C399.326 159.409 401.491 161.744 406.437 165.107C411.866 161.52 421.039 158.326 426.696 155.562C422.304 158.946 417.128 161.228 412.498 164.595C406.305 169.101 407.575 176.894 414.884 179.411C419.093 179.001 425.802 174.661 430.818 173.567L417.481 181.857C417.792 194.787 432.206 187.442 436.72 187.444C433.854 189.896 432.2 190.54 429.345 191.076C429.41 192.767 428.518 189.507 429.836 192.118L431.102 194.605C425.141 191.919 423.997 192.153 419.919 197.326C419.668 194.151 420.434 195.592 418.944 192.714L409.213 197.74L414.506 192.182C409.326 183.211 402.826 188.997 396.304 192.74C396.244 192.703 396.215 192.537 396.167 192.58C395.027 193.628 396.686 192.828 395.055 190.738C391.215 194.209 386.597 197.415 382.526 198.127C387.555 193.612 391.343 192.543 395.943 185.907C383.33 191.751 395.103 191.586 370.933 196.901L376.34 203.131C359.873 194.363 369.372 236.387 339.217 236.554C327.626 236.617 307.03 226.242 295.986 221.033C392.032 259.42 330.472 161.88 371.414 139.124C400.973 121.809 396.188 128.279 402.783 126.523C406.802 125.453 414.652 113.321 423.406 124.362C426.859 128.715 425.853 131.067 427.227 134.81L427.23 134.809Z" fill="#E54D38"/>
</svg>
